<svg id="图层_1" data-name="图层 1"  xmlns="http://www.w3.org/2000/svg" viewBox="0 0 239 160">
<title>宜宾扬尘治理-工作台icon</title>
<defs>
   <filter id="f3" x="-110%" y="-110%" width="400%" height="400%">
        <feOffset result="offOut" in="SourceGraphic" dx="0" dy="0"></feOffset>
        <feGaussianBlur result="blurOut" in="offOut" stdDeviation="20"></feGaussianBlur>
        <feBlend in="SourceGraphic" in2="blurOut" mode="multiply"></feBlend>
    </filter>     
</defs>
<path fill="#00FCF9" filter="url(#f3)" d="M34.16,100.4v9.67a6.32,6.32,0,0,0,6.32,6.32h4.91c0,.35,0,.7,0,1.05a22.13,22.13,0,0,0,44.27,0c0-.35,0-.7,0-1.05h44.64c0,.35,0,.7,0,1.05a22.13,22.13,0,0,0,44.27,0c0-.35,0-.7,0-1.05h4.71a6.32,6.32,0,0,0,6.32-6.32V34a6.32,6.32,0,0,0-6.32-6.32H85.26A6.32,6.32,0,0,0,78.94,34V60.86H60.69c-.7,0-1.42.05-2.12,0a2.64,2.64,0,0,0-1.81.17,2.47,2.47,0,0,0-.59.68c-2.38,3.51-4.73,7-7.13,10.54a5,5,0,0,0-.37.54l-4.46,6.53-4.28,6.26-3.46,5.06c-.43.57-.8,1.18-1.2,1.76a4.56,4.56,0,0,0-1.09,2,7.54,7.54,0,0,0,0,1.37C34.23,97.3,34.16,98.85,34.16,100.4ZM78.94,72V94.08H45.52L60.87,72Zm66.3,45.43c0-.36,0-.71.05-1.05h22.13c0,.35.05.7.05,1.05a11.12,11.12,0,1,1-22.23,0Zm-88.8-1.05H78.56c0,.35.05.7.05,1.05a11.12,11.12,0,1,1-22.23,0C56.38,117.09,56.4,116.74,56.44,116.39Z"/></svg>